{
	"asset":{
		"generator":"Khronos glTF Blender I/O v4.5.48",
		"version":"2.0"
	},
	"extensionsUsed":[
		"FAST64_materials_f3d",
		"FAST64_materials_n64"
	],
	"scene":0,
	"scenes":[
		{
			"extras":{
				"fast64":{
					"settings":{
						"internal_fixed_4_2":1,
						"internal_game_update_ver":1,
						"dont_ask_color_management":1,
						"glTF":{
							"f3d":{}
						}
					},
					"sm64":{
						"address_converter":{
							"version":1
						},
						"animation":{
							"importing":{
								"binary_import_type":1
							},
							"version":1,
							"played_action":{}
						},
						"combined_export":{},
						"version":6
					},
					"oot":{},
					"renderSettings":{}
				},
				"f3d_lib_dir":"/Users/blackattack/Library/Application Support/Blender/4.5/scripts/addons/fast64-main/fast64_internal/f3d/f3d_material_library.blend/NodeTree",
				"ootPreviewSettingsProperty":{
					"ootCSPreviewCSObj":{}
				},
				"opLargeTextureProperty":{
					"mat":{}
				},
				"gameEditorMode":2,
				"f3d_type":10
			},
			"name":"Scene",
			"nodes":[
				0
			]
		}
	],
	"nodes":[
		{
			"extras":{
				"fast64":{
					"sm64":{
						"geo_asm":{},
						"game_object":{},
						"custom":{},
						"version":4
					}
				},
				"ootAlternateSceneHeaders":{
					"currentCutsceneIndex":4
				}
			},
			"mesh":0,
			"name":"Cube",
			"translation":[
				-1.1236892938613892,
				1.4036579132080078,
				0.05498790740966797
			]
		}
	],
	"materials":[
		{
			"alphaMode":"BLEND",
			"extensions":{
				"FAST64_materials_n64":{
					"combiner":{
						"set":true,
						"cycles":[
							{
								"color":[
									"0",
									"0",
									"0",
									"SHADE"
								],
								"alpha":[
									"0",
									"0",
									"0",
									"ENVIRONMENT"
								]
							}
						]
					},
					"environment":{
						"set":false,
						"color":[
							1.0,
							1.0,
							1.0,
							1.0
						]
					},
					"blend":{
						"set":false,
						"color":[
							0.0,
							0.0,
							0.0,
							1.0
						]
					},
					"otherModes":{
						"alphaDither":"NOISE",
						"textureConvert":"FILT",
						"textureFilter":"BILERP",
						"perspectiveCorrection":"PERSP",
						"pipelineMode":"1PRIMITIVE"
					},
					"extensions":{
						"FAST64_materials_f3d":{
							"geometryMode":{
								"zBuffer":true,
								"shade":true,
								"cullBack":true,
								"lighting":true,
								"shadeSmooth":true
							},
							"clipRatio":1,
							"lights":{
								"set":true,
								"lights":[
									{
										"color":[
											1.0,
											1.0,
											1.0
										]
									}
								]
							}
						}
					}
				}
			},
			"extras":{
				"rdp_settings":{},
				"combiner1":{},
				"UVanim":{
					"x":{},
					"y":{}
				},
				"tex0":{
					"tile_scroll":{}
				},
				"ootCollisionProperty":{},
				"f3d_mat":{
					"name":"",
					"combiner1":{
						"name":"",
						"A":8,
						"B":8,
						"C":16,
						"D":4,
						"A_alpha":7,
						"B_alpha":7,
						"C_alpha":7,
						"D_alpha":5
					},
					"combiner2":{
						"name":"",
						"A":8,
						"B":8,
						"C":16,
						"D":4,
						"A_alpha":7,
						"B_alpha":7,
						"C_alpha":7,
						"D_alpha":5
					},
					"tex0":{
						"tex_set":1
					},
					"tex1":{
						"tex_set":1
					},
					"set_prim":1,
					"set_lights":1,
					"set_env":0,
					"set_blend":0,
					"set_key":1,
					"set_k0_5":1,
					"set_combiner":1,
					"use_default_lighting":1,
					"blend_color":[
						0.0,
						0.0,
						0.0,
						1.0
					],
					"prim_color":[
						1.0,
						1.0,
						1.0,
						1.0
					],
					"env_color":[
						1.0,
						1.0,
						1.0,
						1.0
					],
					"key_center":[
						1.0,
						1.0,
						1.0,
						1.0
					],
					"key_scale":[
						0.0,
						0.0,
						0.0
					],
					"key_width":[
						0.0,
						0.0,
						0.0
					],
					"k0":0.686274528503418,
					"k1":-0.16862745583057404,
					"k2":-0.3490196168422699,
					"k3":0.8705882430076599,
					"k4":0.4470588266849518,
					"k5":0.16470588743686676,
					"prim_lod_frac":0.0,
					"prim_lod_min":0.0,
					"default_light_color":[
						1.0,
						1.0,
						1.0,
						1.0
					],
					"ambient_light_color":[
						0.2140410989522934,
						0.2140410989522934,
						0.2140410989522934,
						1.0
					],
					"f3d_light1":null,
					"f3d_light2":null,
					"f3d_light3":null,
					"f3d_light4":null,
					"f3d_light5":null,
					"f3d_light6":null,
					"f3d_light7":null,
					"set_ao":0,
					"set_fresnel":0,
					"set_attroffs_st":0,
					"set_attroffs_z":0,
					"fog_color":[
						0.0,
						0.0,
						0.0,
						1.0
					],
					"fog_position":[
						985,
						1000
					],
					"set_fog":0,
					"use_global_fog":1,
					"rdp_settings":{
						"name":"",
						"g_zbuffer":1,
						"g_shade":1,
						"g_ambocclusion":0,
						"g_attroffset_z_enable":0,
						"g_attroffset_st_enable":0,
						"g_cull_front":0,
						"g_cull_back":1,
						"g_packed_normals":0,
						"g_lighttoalpha":0,
						"g_lighting_specular":0,
						"g_fresnel_color":0,
						"g_fresnel_alpha":0,
						"g_fog":0,
						"g_lighting":1,
						"g_tex_gen":0,
						"g_tex_gen_linear":0,
						"g_lod":0,
						"g_shade_smooth":1,
						"g_clipping":0,
						"g_mdsft_alpha_dither":2,
						"g_mdsft_rgb_dither":0,
						"g_mdsft_combkey":0,
						"g_mdsft_textconv":2,
						"g_mdsft_text_filt":2,
						"g_mdsft_textlut":0,
						"g_mdsft_textlod":0,
						"g_mdsft_textdetail":0,
						"g_mdsft_textpersp":1,
						"g_mdsft_cycletype":0,
						"g_mdsft_color_dither":1,
						"g_mdsft_pipeline":0,
						"g_mdsft_alpha_compare":0,
						"g_mdsft_zsrcsel":0,
						"clip_ratio":1,
						"set_rendermode":0,
						"rendermode_advanced_enabled":0,
						"rendermode_preset_cycle_1":1,
						"rendermode_preset_cycle_2":1
					},
					"draw_layer":{
						"sm64":1,
						"oot":0
					},
					"presetName":"Custom"
				},
				"ootMaterial":{},
				"objex_bonus":{},
				"is_f3d":1,
				"mat_ver":6,
				"f3d_update_flag":0
			},
			"name":"f3dlite_material.005",
			"pbrMetallicRoughness":{
				"baseColorFactor":[
					1,
					1,
					1,
					0
				],
				"metallicFactor":0,
				"roughnessFactor":0.5
			}
		}
	],
	"meshes":[
		{
			"name":"Cube.001",
			"primitives":[
				{
					"attributes":{
						"POSITION":0,
						"NORMAL":1,
						"TEXCOORD_0":2,
						"COLOR_0":3,
						"COLOR_1":4
					},
					"indices":5,
					"material":0
				}
			]
		}
	],
	"accessors":[
		{
			"bufferView":0,
			"componentType":5126,
			"count":2752,
			"max":[
				6.322110652923584,
				12.350473403930664,
				3.024962902069092
			],
			"min":[
				-4.162998199462891,
				-1.4036579132080078,
				-2.6535444259643555
			],
			"type":"VEC3"
		},
		{
			"bufferView":1,
			"componentType":5126,
			"count":2752,
			"type":"VEC3"
		},
		{
			"bufferView":2,
			"componentType":5126,
			"count":2752,
			"type":"VEC2"
		},
		{
			"bufferView":3,
			"componentType":5123,
			"count":2752,
			"normalized":true,
			"type":"VEC4"
		},
		{
			"bufferView":4,
			"componentType":5123,
			"count":2752,
			"normalized":true,
			"type":"VEC4"
		},
		{
			"bufferView":5,
			"componentType":5123,
			"count":4248,
			"type":"SCALAR"
		}
	],
	"bufferViews":[
		{
			"buffer":0,
			"byteLength":33024,
			"byteOffset":0,
			"target":34962
		},
		{
			"buffer":0,
			"byteLength":33024,
			"byteOffset":33024,
			"target":34962
		},
		{
			"buffer":0,
			"byteLength":22016,
			"byteOffset":66048,
			"target":34962
		},
		{
			"buffer":0,
			"byteLength":22016,
			"byteOffset":88064,
			"target":34962
		},
		{
			"buffer":0,
			"byteLength":22016,
			"byteOffset":110080,
			"target":34962
		},
		{
			"buffer":0,
			"byteLength":8496,
			"byteOffset":132096,
			"target":34963
		}
	],
	"buffers":[
		{
			"byteLength":140592,
			"uri":"data:application/octet-stream;base64,"
		}
	]
}
