{
	"asset":{
		"generator":"Khronos glTF Blender I/O v4.5.48",
		"version":"2.0"
	},
	"extensionsUsed":[
		"FAST64_materials_f3d",
		"FAST64_materials_n64"
	],
	"scene":0,
	"scenes":[
		{
			"extras":{
				"fast64":{
					"settings":{
						"internal_fixed_4_2":1,
						"internal_game_update_ver":1,
						"glTF":{
							"f3d":{}
						},
						"dont_ask_color_management":1
					},
					"sm64":{
						"address_converter":{
							"version":1
						},
						"animation":{
							"importing":{
								"binary_import_type":1
							},
							"version":1
						},
						"combined_export":{},
						"version":6
					},
					"oot":{},
					"renderSettings":{}
				},
				"f3d_lib_dir":"/Users/blackattack/Library/Application Support/Blender/4.5/scripts/addons/fast64-main/fast64_internal/f3d/f3d_material_library.blend/NodeTree",
				"Proxy_Picker":{
					"last_layers":"[True, True, False, False, True, False, False, False, False, False, False, False, False, False, False, False]",
					"last_bones":"[]"
				},
				"arp_active_tab":1,
				"arp_bind_engine":1,
				"arp_bind_scale_fix":1,
				"opLargeTextureProperty":{
					"mat":{}
				},
				"f3d_type":10,
				"gameEditorMode":2,
				"ootPreviewSettingsProperty":{
					"ootCSPreviewCSObj":{}
				},
				"gltf_action_filter":[]
			},
			"name":"Scene",
			"nodes":[
				0
			]
		}
	],
	"nodes":[
		{
			"extras":{
				"gltf2_animation_rest":[
					0.8227829933166504,
					0.0,
					0.0,
					0.0,
					0.0,
					1.1295315027236938,
					0.0,
					0.0,
					0.0,
					0.0,
					0.6660041809082031,
					0.0,
					-0.026137588545680046,
					1.6094728708267212,
					7.5761027336120605,
					1.0
				]
			},
			"mesh":0,
			"name":"Squir",
			"scale":[
				0.8227829933166504,
				0.6660041809082031,
				1.1295315027236938
			],
			"translation":[
				-0.026137588545680046,
				7.5761027336120605,
				-1.6094728708267212
			]
		}
	],
	"materials":[
		{
			"alphaMode":"BLEND",
			"extensions":{
				"FAST64_materials_n64":{
					"combiner":{
						"set":true,
						"cycles":[
							{
								"color":[
									"0",
									"0",
									"0",
									"SHADE"
								],
								"alpha":[
									"0",
									"0",
									"0",
									"ENVIRONMENT"
								]
							}
						]
					},
					"environment":{
						"set":false,
						"color":[
							1.0,
							1.0,
							1.0,
							1.0
						]
					},
					"blend":{
						"set":false,
						"color":[
							0.0,
							0.0,
							0.0,
							1.0
						]
					},
					"otherModes":{
						"alphaDither":"NOISE",
						"textureConvert":"FILT",
						"textureFilter":"BILERP",
						"perspectiveCorrection":"PERSP",
						"pipelineMode":"1PRIMITIVE"
					},
					"extensions":{
						"FAST64_materials_f3d":{
							"geometryMode":{
								"zBuffer":true,
								"shade":true,
								"cullBack":true,
								"lighting":true,
								"shadeSmooth":true
							},
							"clipRatio":1,
							"lights":{
								"set":true,
								"lights":[
									{
										"color":[
											1.0,
											1.0,
											1.0
										]
									}
								]
							}
						}
					}
				}
			},
			"extras":{
				"rdp_settings":{},
				"combiner1":{},
				"UVanim":{
					"x":{},
					"y":{}
				},
				"tex0":{
					"tile_scroll":{}
				},
				"ootCollisionProperty":{},
				"f3d_mat":{
					"name":"",
					"combiner1":{
						"name":"",
						"A":8,
						"B":8,
						"C":16,
						"D":4,
						"A_alpha":7,
						"B_alpha":7,
						"C_alpha":7,
						"D_alpha":5
					},
					"combiner2":{
						"name":"",
						"A":8,
						"B":8,
						"C":16,
						"D":4,
						"A_alpha":7,
						"B_alpha":7,
						"C_alpha":7,
						"D_alpha":5
					},
					"tex0":{
						"tex_set":1,
						"tex":{},
						"S":{
							"clamp":false,
							"mirror":false,
							"low":0.0,
							"high":0.0,
							"mask":5,
							"shift":0
						},
						"T":{
							"clamp":false,
							"mirror":false,
							"low":0.0,
							"high":0.0,
							"mask":5,
							"shift":0
						},
						"use_tex_reference":false,
						"tex_reference":"0x08000000",
						"tex_reference_size":[
							32,
							32
						],
						"pal_reference":"0x08000000",
						"pal_reference_size":16,
						"menu":false,
						"autoprop":true,
						"tile_scroll":{
							"s":0,
							"t":0,
							"interval":1
						}
					},
					"tex1":{
						"tex_set":1,
						"tex":{},
						"S":{
							"clamp":false,
							"mirror":false,
							"low":0.0,
							"high":0.0,
							"mask":5,
							"shift":0
						},
						"T":{
							"clamp":false,
							"mirror":false,
							"low":0.0,
							"high":0.0,
							"mask":5,
							"shift":0
						},
						"use_tex_reference":false,
						"tex_reference":"0x08000000",
						"tex_reference_size":[
							32,
							32
						],
						"pal_reference":"0x08000000",
						"pal_reference_size":16,
						"menu":false,
						"autoprop":true,
						"tile_scroll":{
							"s":0,
							"t":0,
							"interval":1
						}
					},
					"set_prim":1,
					"set_lights":1,
					"set_env":0,
					"set_blend":0,
					"set_key":1,
					"set_k0_5":1,
					"set_combiner":1,
					"use_default_lighting":1,
					"blend_color":[
						0.0,
						0.0,
						0.0,
						1.0
					],
					"prim_color":[
						1.0,
						1.0,
						1.0,
						1.0
					],
					"env_color":[
						1.0,
						1.0,
						1.0,
						1.0
					],
					"key_center":[
						1.0,
						1.0,
						1.0,
						1.0
					],
					"key_scale":[
						0.0,
						0.0,
						0.0
					],
					"key_width":[
						0.0,
						0.0,
						0.0
					],
					"k0":0.686274528503418,
					"k1":-0.16862745583057404,
					"k2":-0.3490196168422699,
					"k3":0.8705882430076599,
					"k4":0.4470588266849518,
					"k5":0.16470588743686676,
					"prim_lod_frac":0.0,
					"prim_lod_min":0.0,
					"default_light_color":[
						1.0,
						1.0,
						1.0,
						1.0
					],
					"ambient_light_color":[
						0.2140410989522934,
						0.2140410989522934,
						0.2140410989522934,
						1.0
					],
					"f3d_light1":null,
					"f3d_light2":null,
					"f3d_light3":null,
					"f3d_light4":null,
					"f3d_light5":null,
					"f3d_light6":null,
					"f3d_light7":null,
					"set_ao":0,
					"set_fresnel":0,
					"set_attroffs_st":0,
					"set_attroffs_z":0,
					"fog_color":[
						0.0,
						0.0,
						0.0,
						1.0
					],
					"fog_position":[
						985,
						1000
					],
					"set_fog":0,
					"use_global_fog":1,
					"rdp_settings":{
						"name":"",
						"g_zbuffer":1,
						"g_shade":1,
						"g_ambocclusion":0,
						"g_attroffset_z_enable":0,
						"g_attroffset_st_enable":0,
						"g_cull_front":0,
						"g_cull_back":1,
						"g_packed_normals":0,
						"g_lighttoalpha":0,
						"g_lighting_specular":0,
						"g_fresnel_color":0,
						"g_fresnel_alpha":0,
						"g_fog":0,
						"g_lighting":1,
						"g_tex_gen":0,
						"g_tex_gen_linear":0,
						"g_lod":0,
						"g_shade_smooth":1,
						"g_clipping":0,
						"g_mdsft_alpha_dither":2,
						"g_mdsft_rgb_dither":0,
						"g_mdsft_combkey":0,
						"g_mdsft_textconv":2,
						"g_mdsft_text_filt":2,
						"g_mdsft_textlut":0,
						"g_mdsft_textlod":0,
						"g_mdsft_textdetail":0,
						"g_mdsft_textpersp":1,
						"g_mdsft_cycletype":0,
						"g_mdsft_color_dither":1,
						"g_mdsft_pipeline":0,
						"g_mdsft_alpha_compare":0,
						"g_mdsft_zsrcsel":0,
						"clip_ratio":1,
						"set_rendermode":0,
						"rendermode_advanced_enabled":0,
						"rendermode_preset_cycle_1":1,
						"rendermode_preset_cycle_2":1,
						"num_textures_mipmapped":2,
						"prim_depth":{
							"z":0,
							"dz":0
						},
						"aa_en":false,
						"z_cmp":false,
						"z_upd":false,
						"im_rd":false,
						"clr_on_cvg":false,
						"cvg_x_alpha":false,
						"alpha_cvg_sel":false,
						"force_bl":false
					},
					"draw_layer":{
						"sm64":1,
						"oot":0
					},
					"presetName":"Custom",
					"scale_autoprop":true,
					"menu_procAnim":false,
					"UVanim0":{
						"x":{
							"speed":1.0,
							"amplitude":1.0,
							"frequency":1.0,
							"spaceFrequency":0.0,
							"offset":0.0,
							"noiseAmplitude":1.0,
							"animate":false
						},
						"y":{
							"speed":1.0,
							"amplitude":1.0,
							"frequency":1.0,
							"spaceFrequency":0.0,
							"offset":0.0,
							"noiseAmplitude":1.0,
							"animate":false
						},
						"z":{
							"speed":1.0,
							"amplitude":1.0,
							"frequency":1.0,
							"spaceFrequency":0.0,
							"offset":0.0,
							"noiseAmplitude":1.0,
							"animate":false
						},
						"pivot":[
							0.0,
							0.0
						],
						"angularSpeed":1.0,
						"menu":false
					},
					"UVanim1":{
						"x":{
							"speed":1.0,
							"amplitude":1.0,
							"frequency":1.0,
							"spaceFrequency":0.0,
							"offset":0.0,
							"noiseAmplitude":1.0,
							"animate":false
						},
						"y":{
							"speed":1.0,
							"amplitude":1.0,
							"frequency":1.0,
							"spaceFrequency":0.0,
							"offset":0.0,
							"noiseAmplitude":1.0,
							"animate":false
						},
						"z":{
							"speed":1.0,
							"amplitude":1.0,
							"frequency":1.0,
							"spaceFrequency":0.0,
							"offset":0.0,
							"noiseAmplitude":1.0,
							"animate":false
						},
						"pivot":[
							0.0,
							0.0
						],
						"angularSpeed":1.0,
						"menu":false
					},
					"tex_scale":[
						1.0,
						1.0
					],
					"set_ambient_from_light":true,
					"ao_ambient":1.0,
					"ao_directional":0.625,
					"ao_point":0.0,
					"fresnel_lo":0.699999988079071,
					"fresnel_hi":0.4000000059604645,
					"attroffs_st":[
						0.0,
						0.0
					],
					"attroffs_z":-2,
					"menu_geo":false,
					"menu_upper":false,
					"menu_lower":false,
					"menu_other":false,
					"menu_lower_render":false,
					"use_large_textures":false,
					"expand_cel_shading_ui":false,
					"use_cel_shading":false,
					"cel_shading":{}
				},
				"ootMaterial":{},
				"objex_bonus":{},
				"is_f3d":1,
				"mat_ver":6,
				"f3d_update_flag":0
			},
			"name":"f3dlite_material.002",
			"pbrMetallicRoughness":{
				"baseColorFactor":[
					1,
					1,
					1,
					0
				],
				"metallicFactor":0,
				"roughnessFactor":0.5
			}
		}
	],
	"meshes":[
		{
			"name":"Squir",
			"primitives":[
				{
					"attributes":{
						"POSITION":0,
						"NORMAL":1,
						"TEXCOORD_0":2,
						"COLOR_0":3,
						"COLOR_1":4
					},
					"indices":5,
					"material":0
				}
			]
		}
	],
	"accessors":[
		{
			"bufferView":0,
			"componentType":5126,
			"count":4848,
			"max":[
				8.795101165771484,
				9.872453689575195,
				4.408738136291504
			],
			"min":[
				-8.788108825683594,
				-11.34184741973877,
				-0.9999999403953552
			],
			"type":"VEC3"
		},
		{
			"bufferView":1,
			"componentType":5126,
			"count":4848,
			"type":"VEC3"
		},
		{
			"bufferView":2,
			"componentType":5126,
			"count":4848,
			"type":"VEC2"
		},
		{
			"bufferView":3,
			"componentType":5123,
			"count":4848,
			"normalized":true,
			"type":"VEC4"
		},
		{
			"bufferView":4,
			"componentType":5123,
			"count":4848,
			"normalized":true,
			"type":"VEC4"
		},
		{
			"bufferView":5,
			"componentType":5123,
			"count":10014,
			"type":"SCALAR"
		}
	],
	"bufferViews":[
		{
			"buffer":0,
			"byteLength":58176,
			"byteOffset":0,
			"target":34962
		},
		{
			"buffer":0,
			"byteLength":58176,
			"byteOffset":58176,
			"target":34962
		},
		{
			"buffer":0,
			"byteLength":38784,
			"byteOffset":116352,
			"target":34962
		},
		{
			"buffer":0,
			"byteLength":38784,
			"byteOffset":155136,
			"target":34962
		},
		{
			"buffer":0,
			"byteLength":38784,
			"byteOffset":193920,
			"target":34962
		},
		{
			"buffer":0,
			"byteLength":20028,
			"byteOffset":232704,
			"target":34963
		}
	],
	"buffers":[
		{
			"byteLength":252732,
			"uri":"data:application/octet-stream;base64,"
		}
	]
}
