{
	"asset":{
		"generator":"Khronos glTF Blender I/O v4.5.48",
		"version":"2.0"
	},
	"extensionsUsed":[
		"FAST64_sampler_n64",
		"FAST64_materials_f3d",
		"FAST64_materials_n64"
	],
	"scene":0,
	"scenes":[
		{
			"extras":{
				"fast64":{
					"settings":{
						"internal_fixed_4_2":1,
						"internal_game_update_ver":1,
						"glTF":{
							"f3d":{}
						}
					},
					"sm64":{
						"address_converter":{
							"version":1
						},
						"animation":{
							"importing":{
								"binary_import_type":1
							},
							"version":1,
							"played_action":{}
						},
						"combined_export":{},
						"version":6
					},
					"oot":{},
					"renderSettings":{}
				},
				"f3d_lib_dir":"/Users/blackattack/Library/Application Support/Blender/4.5/scripts/addons/fast64/fast64_internal/f3d/f3d_material_library.blend/NodeTree",
				"ootPreviewSettingsProperty":{
					"ootCSPreviewCSObj":{}
				}
			},
			"name":"Scene",
			"nodes":[
				0
			]
		}
	],
	"nodes":[
		{
			"mesh":0,
			"name":"Plane",
			"scale":[
				75,
				75,
				75
			]
		}
	],
	"materials":[
		{
			"alphaMode":"BLEND",
			"extensions":{
				"FAST64_materials_n64":{
					"combiner":{
						"set":true,
						"cycles":[
							{
								"color":[
									"TEXEL0",
									"0",
									"SHADE",
									"0"
								],
								"alpha":[
									"0",
									"0",
									"0",
									"ENVIRONMENT"
								]
							}
						]
					},
					"environment":{
						"set":false,
						"color":[
							1.0,
							1.0,
							1.0,
							1.0
						]
					},
					"blend":{
						"set":false,
						"color":[
							0.0,
							0.0,
							0.0,
							1.0
						]
					},
					"otherModes":{
						"alphaDither":"NOISE",
						"textureConvert":"FILT",
						"textureFilter":"BILERP",
						"perspectiveCorrection":"PERSP",
						"pipelineMode":"1PRIMITIVE"
					},
					"uvBasis":0,
					"textures":{
						"0":{
							"index":0
						}
					},
					"extensions":{
						"FAST64_materials_f3d":{
							"geometryMode":{
								"zBuffer":true,
								"shade":true,
								"cullBack":true,
								"lighting":true,
								"shadeSmooth":true
							},
							"clipRatio":1,
							"lights":{
								"set":true,
								"lights":[
									{
										"color":[
											1.0,
											1.0,
											1.0
										]
									}
								]
							}
						}
					}
				}
			},
			"extras":{
				"rdp_settings":{},
				"combiner1":{},
				"UVanim":{
					"x":{},
					"y":{}
				},
				"tex0":{
					"tile_scroll":{}
				},
				"ootCollisionProperty":{},
				"f3d_mat":{
					"name":"",
					"combiner1":{
						"name":"",
						"A":1,
						"B":8,
						"C":4,
						"D":7,
						"A_alpha":7,
						"B_alpha":7,
						"C_alpha":7,
						"D_alpha":5
					},
					"combiner2":{
						"name":"",
						"A":1,
						"B":8,
						"C":4,
						"D":7,
						"A_alpha":7,
						"B_alpha":7,
						"C_alpha":7,
						"D_alpha":5
					},
					"tex0":{
						"tex_set":1,
						"tex":{
							"name":"juri-world.png",
							"type":"Image"
						},
						"tile_scroll":{},
						"menu":1,
						"S":{
							"mask":5,
							"shift":0,
							"low":0.0,
							"high":31.0
						},
						"T":{
							"mask":5,
							"shift":0,
							"low":0.0,
							"high":31.0
						},
						"tex_format":7
					},
					"tex1":{
						"tex_set":1,
						"tex":{}
					},
					"set_prim":1,
					"set_lights":1,
					"set_env":0,
					"set_blend":0,
					"set_key":1,
					"set_k0_5":1,
					"set_combiner":1,
					"use_default_lighting":1,
					"blend_color":[
						0.0,
						0.0,
						0.0,
						1.0
					],
					"prim_color":[
						1.0,
						1.0,
						1.0,
						1.0
					],
					"env_color":[
						1.0,
						1.0,
						1.0,
						1.0
					],
					"key_center":[
						1.0,
						1.0,
						1.0,
						1.0
					],
					"key_scale":[
						0.0,
						0.0,
						0.0
					],
					"key_width":[
						0.0,
						0.0,
						0.0
					],
					"k0":0.686274528503418,
					"k1":-0.16862745583057404,
					"k2":-0.3490196168422699,
					"k3":0.8705882430076599,
					"k4":0.4470588266849518,
					"k5":0.16470588743686676,
					"prim_lod_frac":0.0,
					"prim_lod_min":0.0,
					"default_light_color":[
						1.0,
						1.0,
						1.0,
						1.0
					],
					"ambient_light_color":[
						0.2140410989522934,
						0.2140410989522934,
						0.2140410989522934,
						1.0
					],
					"f3d_light1":null,
					"f3d_light2":null,
					"f3d_light3":null,
					"f3d_light4":null,
					"f3d_light5":null,
					"f3d_light6":null,
					"f3d_light7":null,
					"set_ao":0,
					"set_fresnel":0,
					"set_attroffs_st":0,
					"set_attroffs_z":0,
					"fog_color":[
						0.0,
						0.0,
						0.0,
						1.0
					],
					"fog_position":[
						985,
						1000
					],
					"set_fog":0,
					"use_global_fog":1,
					"rdp_settings":{
						"name":"",
						"g_zbuffer":1,
						"g_shade":1,
						"g_ambocclusion":0,
						"g_attroffset_z_enable":0,
						"g_attroffset_st_enable":0,
						"g_cull_front":0,
						"g_cull_back":1,
						"g_packed_normals":0,
						"g_lighttoalpha":0,
						"g_lighting_specular":0,
						"g_fresnel_color":0,
						"g_fresnel_alpha":0,
						"g_fog":0,
						"g_lighting":1,
						"g_tex_gen":0,
						"g_tex_gen_linear":0,
						"g_lod":0,
						"g_shade_smooth":1,
						"g_clipping":0,
						"g_mdsft_alpha_dither":2,
						"g_mdsft_rgb_dither":0,
						"g_mdsft_combkey":0,
						"g_mdsft_textconv":2,
						"g_mdsft_text_filt":2,
						"g_mdsft_textlut":0,
						"g_mdsft_textlod":0,
						"g_mdsft_textdetail":0,
						"g_mdsft_textpersp":1,
						"g_mdsft_cycletype":0,
						"g_mdsft_color_dither":1,
						"g_mdsft_pipeline":0,
						"g_mdsft_alpha_compare":0,
						"g_mdsft_zsrcsel":0,
						"clip_ratio":1,
						"set_rendermode":0,
						"rendermode_advanced_enabled":0,
						"rendermode_preset_cycle_1":1,
						"rendermode_preset_cycle_2":1,
						"aa_en":1,
						"z_cmp":1,
						"z_upd":1,
						"im_rd":1,
						"clr_on_cvg":0,
						"cvg_dst":0,
						"zmode":0,
						"cvg_x_alpha":0,
						"alpha_cvg_sel":1,
						"force_bl":0,
						"blend_p1":0,
						"blend_p2":0,
						"blend_a1":0,
						"blend_a2":0,
						"blend_m1":1,
						"blend_m2":1,
						"blend_b1":1,
						"blend_b2":1
					},
					"draw_layer":{
						"sm64":1,
						"oot":0
					},
					"presetName":"Sm64 Shaded Texture",
					"UVanim0":{
						"x":{},
						"y":{}
					},
					"tex_scale":[
						1.0,
						1.0
					]
				},
				"ootMaterial":{},
				"objex_bonus":{},
				"is_f3d":1,
				"mat_ver":6,
				"f3d_update_flag":0
			},
			"name":"f3dlite_material",
			"pbrMetallicRoughness":{
				"baseColorFactor":[
					1,
					1,
					1,
					0
				],
				"baseColorTexture":{
					"index":0
				},
				"metallicFactor":0,
				"roughnessFactor":0.5
			}
		}
	],
	"meshes":[
		{
			"name":"Plane",
			"primitives":[
				{
					"attributes":{
						"POSITION":0,
						"NORMAL":1,
						"TEXCOORD_0":2,
						"COLOR_0":3,
						"COLOR_1":4
					},
					"indices":5,
					"material":0
				}
			]
		}
	],
	"textures":[
		{
			"name":"juri-world",
			"sampler":0,
			"source":0
		}
	],
	"images":[
		{
			"bufferView":6,
			"mimeType":"image/png",
			"name":"juri-world"
		}
	],
	"accessors":[
		{
			"bufferView":0,
			"componentType":5126,
			"count":4,
			"max":[
				1,
				0,
				1
			],
			"min":[
				-1,
				0,
				-1
			],
			"type":"VEC3"
		},
		{
			"bufferView":1,
			"componentType":5126,
			"count":4,
			"type":"VEC3"
		},
		{
			"bufferView":2,
			"componentType":5126,
			"count":4,
			"type":"VEC2"
		},
		{
			"bufferView":3,
			"componentType":5123,
			"count":4,
			"normalized":true,
			"type":"VEC4"
		},
		{
			"bufferView":4,
			"componentType":5123,
			"count":4,
			"normalized":true,
			"type":"VEC4"
		},
		{
			"bufferView":5,
			"componentType":5123,
			"count":6,
			"type":"SCALAR"
		}
	],
	"bufferViews":[
		{
			"buffer":0,
			"byteLength":48,
			"byteOffset":0,
			"target":34962
		},
		{
			"buffer":0,
			"byteLength":48,
			"byteOffset":48,
			"target":34962
		},
		{
			"buffer":0,
			"byteLength":32,
			"byteOffset":96,
			"target":34962
		},
		{
			"buffer":0,
			"byteLength":32,
			"byteOffset":128,
			"target":34962
		},
		{
			"buffer":0,
			"byteLength":32,
			"byteOffset":160,
			"target":34962
		},
		{
			"buffer":0,
			"byteLength":12,
			"byteOffset":192,
			"target":34963
		},
		{
			"buffer":0,
			"byteLength":2577,
			"byteOffset":204
		}
	],
	"samplers":[
		{
			"extensions":{
				"FAST64_sampler_n64":{
					"set":true,
					"format":{
						"texture":"RGBA",
						"size":16
					},
					"fields":[
						{
							"clamp":false,
							"mirror":false
						},
						{
							"clamp":false,
							"mirror":false
						}
					]
				}
			},
			"magFilter":9729,
			"minFilter":9987,
			"wrapS":10497,
			"wrapT":10497
		}
	],
	"buffers":[
		{
			"byteLength":2784,
			"uri":"data:application/octet-stream;base64,"
		}
	]
}
