{
	"asset":{
		"generator":"Khronos glTF Blender I/O v4.5.48",
		"version":"2.0"
	},
	"extensionsUsed":[
		"FAST64_sampler_n64",
		"FAST64_materials_f3d",
		"FAST64_materials_n64"
	],
	"scene":0,
	"scenes":[
		{
			"extras":{
				"fast64":{
					"settings":{
						"internal_game_update_ver":1,
						"internal_fixed_4_2":1,
						"glTF":{
							"f3d":{}
						}
					},
					"sm64":{
						"address_converter":{
							"version":1
						},
						"combined_export":{},
						"version":6,
						"animation":{
							"importing":{
								"binary_import_type":1
							},
							"version":1
						}
					},
					"renderSettings":{},
					"oot":{}
				},
				"f3d_lib_dir":"/Users/blackattack/Library/Application Support/Blender/4.5/scripts/addons/fast64/fast64_internal/f3d/f3d_material_library.blend/NodeTree",
				"opLargeTextureProperty":{
					"mat":{}
				},
				"gameEditorMode":2,
				"f3d_type":10,
				"ootPreviewSettingsProperty":{
					"ootCSPreviewCSObj":{}
				}
			},
			"name":"Scene",
			"nodes":[
				0
			]
		}
	],
	"nodes":[
		{
			"extras":{
				"fast64":{
					"sm64":{
						"geo_asm":{},
						"game_object":{},
						"custom":{},
						"version":4
					}
				}
			},
			"mesh":0,
			"name":"N square",
			"rotation":[
				0.7071068286895752,
				0,
				0,
				0.7071068286895752
			]
		}
	],
	"materials":[
		{
			"alphaMode":"BLEND",
			"extensions":{
				"FAST64_materials_n64":{
					"combiner":{
						"set":true,
						"cycles":[
							{
								"color":[
									"TEXEL0",
									"0",
									"SHADE",
									"0"
								],
								"alpha":[
									"0",
									"0",
									"0",
									"1"
								]
							},
							{
								"color":[
									"COMBINED",
									"0",
									"PRIMITIVE",
									"0"
								],
								"alpha":[
									"0",
									"0",
									"0",
									"COMBINED"
								]
							}
						]
					},
					"primitive":{
						"set":true,
						"color":[
							0.0082,
							0.4972,
							0.0,
							1.0
						],
						"minLoDRatio":0,
						"loDFraction":0
					},
					"fog":{
						"set":false,
						"color":[
							0.0,
							0.0,
							0.0,
							1.0
						],
						"range":[
							985,
							1000
						]
					},
					"blend":{
						"set":false,
						"color":[
							0.0,
							0.0,
							0.0,
							1.0
						]
					},
					"otherModes":{
						"alphaDither":"NOISE",
						"textureConvert":"FILT",
						"textureFilter":"BILERP",
						"perspectiveCorrection":"PERSP",
						"cycleType":"2CYCLE",
						"renderMode":{
							"presets":[
								"FOG_SHADE_A",
								"AA_ZB_OPA_SURF2"
							]
						}
					},
					"uvBasis":0,
					"textures":{
						"0":{
							"index":0
						}
					},
					"extensions":{
						"FAST64_materials_f3d":{
							"geometryMode":{
								"zBuffer":true,
								"shade":true,
								"cullBack":true,
								"fog":true,
								"lighting":true,
								"shadeSmooth":true
							},
							"clipRatio":1,
							"lights":{
								"set":false
							}
						}
					}
				}
			},
			"extras":{
				"rdp_settings":{},
				"combiner1":{},
				"UVanim":{
					"x":{},
					"y":{}
				},
				"tex0":{
					"tile_scroll":{}
				},
				"ootCollisionProperty":{},
				"f3d_mat":{
					"name":"",
					"combiner1":{
						"name":"",
						"A":1,
						"B":8,
						"C":4,
						"D":7,
						"A_alpha":7,
						"B_alpha":7,
						"C_alpha":7,
						"D_alpha":6
					},
					"combiner2":{
						"name":"",
						"A":0,
						"B":8,
						"C":3,
						"D":7,
						"A_alpha":7,
						"B_alpha":7,
						"C_alpha":7,
						"D_alpha":0
					},
					"tex0":{
						"tex_set":1,
						"name":"",
						"tex":{
							"name":"N64Outline.png",
							"type":"Image"
						},
						"menu":1,
						"S":{
							"mask":5,
							"shift":0,
							"low":0.0,
							"high":31.0
						},
						"T":{
							"mask":5,
							"shift":0,
							"low":0.0,
							"high":31.0
						},
						"tex_format":0
					},
					"tex1":{
						"tex_set":1,
						"name":"",
						"tex":{}
					},
					"set_prim":1,
					"set_lights":0,
					"set_env":0,
					"set_blend":0,
					"set_key":1,
					"set_k0_5":1,
					"set_combiner":1,
					"use_default_lighting":1,
					"blend_color":[
						0.0,
						0.0,
						0.0,
						1.0
					],
					"prim_color":[
						0.008207769133150578,
						0.49724990129470825,
						0.0,
						1.0
					],
					"env_color":[
						0.0,
						0.0,
						0.0,
						1.0
					],
					"key_center":[
						0.5,
						0.5,
						0.5,
						1.0
					],
					"key_scale":[
						0.0,
						0.0,
						0.0
					],
					"key_width":[
						0.0,
						0.0,
						0.0
					],
					"k0":0.686274528503418,
					"k1":-0.16862745583057404,
					"k2":-0.3490196168422699,
					"k3":0.8705882430076599,
					"k4":0.4470588266849518,
					"k5":0.16470588743686676,
					"prim_lod_frac":0.0,
					"prim_lod_min":0.0,
					"default_light_color":[
						1.0,
						1.0,
						1.0,
						1.0
					],
					"ambient_light_color":[
						0.2140410989522934,
						0.2140410989522934,
						0.2140410989522934,
						1.0
					],
					"f3d_light1":null,
					"f3d_light2":null,
					"f3d_light3":null,
					"f3d_light4":null,
					"f3d_light5":null,
					"f3d_light6":null,
					"f3d_light7":null,
					"set_ao":0,
					"set_fresnel":0,
					"set_attroffs_st":0,
					"set_attroffs_z":0,
					"fog_color":[
						0.0,
						0.0,
						0.0,
						1.0
					],
					"fog_position":[
						985,
						1000
					],
					"set_fog":0,
					"use_global_fog":1,
					"rdp_settings":{
						"name":"",
						"g_zbuffer":1,
						"g_shade":1,
						"g_ambocclusion":0,
						"g_attroffset_z_enable":0,
						"g_attroffset_st_enable":0,
						"g_cull_front":0,
						"g_cull_back":1,
						"g_packed_normals":0,
						"g_lighttoalpha":0,
						"g_lighting_specular":0,
						"g_fresnel_color":0,
						"g_fresnel_alpha":0,
						"g_fog":1,
						"g_lighting":1,
						"g_tex_gen":0,
						"g_tex_gen_linear":0,
						"g_lod":0,
						"g_shade_smooth":1,
						"g_clipping":0,
						"g_mdsft_alpha_dither":2,
						"g_mdsft_rgb_dither":0,
						"g_mdsft_combkey":0,
						"g_mdsft_textconv":2,
						"g_mdsft_text_filt":2,
						"g_mdsft_textlut":0,
						"g_mdsft_textlod":0,
						"g_mdsft_textdetail":0,
						"g_mdsft_textpersp":1,
						"g_mdsft_cycletype":1,
						"g_mdsft_color_dither":1,
						"g_mdsft_pipeline":1,
						"g_mdsft_alpha_compare":0,
						"g_mdsft_zsrcsel":0,
						"clip_ratio":1,
						"set_rendermode":1,
						"rendermode_advanced_enabled":0,
						"rendermode_preset_cycle_1":8,
						"rendermode_preset_cycle_2":1,
						"aa_en":1,
						"z_cmp":1,
						"z_upd":1,
						"im_rd":1,
						"clr_on_cvg":0,
						"cvg_dst":0,
						"zmode":0,
						"cvg_x_alpha":0,
						"alpha_cvg_sel":1,
						"force_bl":0,
						"blend_p1":3,
						"blend_p2":0,
						"blend_a1":2,
						"blend_a2":0,
						"blend_m1":0,
						"blend_m2":1,
						"blend_b1":0,
						"blend_b2":1
					},
					"draw_layer":{
						"sm64":1,
						"oot":0,
						"name":""
					},
					"presetName":"Custom",
					"tex_scale":[
						1.0,
						1.0
					]
				},
				"ootMaterial":{},
				"objex_bonus":{},
				"is_f3d":1,
				"mat_ver":6,
				"f3d_update_flag":0
			},
			"name":"f3dlite_material.005",
			"pbrMetallicRoughness":{
				"baseColorFactor":[
					0.0082,
					0.4972,
					0,
					1
				],
				"baseColorTexture":{
					"index":0
				},
				"metallicFactor":0,
				"roughnessFactor":0.5
			}
		},
		{
			"alphaMode":"BLEND",
			"extensions":{
				"FAST64_materials_n64":{
					"combiner":{
						"set":true,
						"cycles":[
							{
								"color":[
									"TEXEL0",
									"0",
									"SHADE",
									"0"
								],
								"alpha":[
									"0",
									"0",
									"0",
									"1"
								]
							},
							{
								"color":[
									"COMBINED",
									"0",
									"PRIMITIVE",
									"0"
								],
								"alpha":[
									"0",
									"0",
									"0",
									"COMBINED"
								]
							}
						]
					},
					"primitive":{
						"set":true,
						"color":[
							1.0,
							0.2829,
							0.0,
							1.0
						],
						"minLoDRatio":0,
						"loDFraction":0
					},
					"fog":{
						"set":false,
						"color":[
							0.0,
							0.0,
							0.0,
							1.0
						],
						"range":[
							985,
							1000
						]
					},
					"blend":{
						"set":false,
						"color":[
							0.0,
							0.0,
							0.0,
							1.0
						]
					},
					"otherModes":{
						"alphaDither":"NOISE",
						"textureConvert":"FILT",
						"textureFilter":"BILERP",
						"perspectiveCorrection":"PERSP",
						"cycleType":"2CYCLE",
						"renderMode":{
							"presets":[
								"FOG_SHADE_A",
								"AA_ZB_OPA_SURF2"
							]
						}
					},
					"uvBasis":0,
					"textures":{
						"0":{
							"index":1
						}
					},
					"extensions":{
						"FAST64_materials_f3d":{
							"geometryMode":{
								"zBuffer":true,
								"shade":true,
								"cullBack":true,
								"fog":true,
								"lighting":true,
								"shadeSmooth":true
							},
							"clipRatio":1,
							"lights":{
								"set":false
							}
						}
					}
				}
			},
			"extras":{
				"rdp_settings":{},
				"combiner1":{},
				"UVanim":{
					"x":{},
					"y":{}
				},
				"tex0":{
					"tile_scroll":{}
				},
				"ootCollisionProperty":{},
				"f3d_mat":{
					"name":"",
					"combiner1":{
						"name":"",
						"A":1,
						"B":8,
						"C":4,
						"D":7,
						"A_alpha":7,
						"B_alpha":7,
						"C_alpha":7,
						"D_alpha":6
					},
					"combiner2":{
						"name":"",
						"A":0,
						"B":8,
						"C":3,
						"D":7,
						"A_alpha":7,
						"B_alpha":7,
						"C_alpha":7,
						"D_alpha":0
					},
					"tex0":{
						"tex_set":1,
						"name":"",
						"tex":{
							"name":"N64Outline.png",
							"type":"Image"
						},
						"menu":1,
						"S":{
							"mask":5,
							"shift":0,
							"low":0.0,
							"high":31.0
						},
						"T":{
							"mask":5,
							"shift":0,
							"low":0.0,
							"high":31.0
						},
						"tex_format":0
					},
					"tex1":{
						"tex_set":1,
						"name":"",
						"tex":{}
					},
					"set_prim":1,
					"set_lights":0,
					"set_env":0,
					"set_blend":0,
					"set_key":1,
					"set_k0_5":1,
					"set_combiner":1,
					"use_default_lighting":1,
					"blend_color":[
						0.0,
						0.0,
						0.0,
						1.0
					],
					"prim_color":[
						1.0,
						0.2829144299030304,
						0.0,
						1.0
					],
					"env_color":[
						0.0,
						0.0,
						0.0,
						1.0
					],
					"key_center":[
						0.5,
						0.5,
						0.5,
						1.0
					],
					"key_scale":[
						0.0,
						0.0,
						0.0
					],
					"key_width":[
						0.0,
						0.0,
						0.0
					],
					"k0":0.686274528503418,
					"k1":-0.16862745583057404,
					"k2":-0.3490196168422699,
					"k3":0.8705882430076599,
					"k4":0.4470588266849518,
					"k5":0.16470588743686676,
					"prim_lod_frac":0.0,
					"prim_lod_min":0.0,
					"default_light_color":[
						1.0,
						1.0,
						1.0,
						1.0
					],
					"ambient_light_color":[
						0.2140410989522934,
						0.2140410989522934,
						0.2140410989522934,
						1.0
					],
					"f3d_light1":null,
					"f3d_light2":null,
					"f3d_light3":null,
					"f3d_light4":null,
					"f3d_light5":null,
					"f3d_light6":null,
					"f3d_light7":null,
					"set_ao":0,
					"set_fresnel":0,
					"set_attroffs_st":0,
					"set_attroffs_z":0,
					"fog_color":[
						0.0,
						0.0,
						0.0,
						1.0
					],
					"fog_position":[
						985,
						1000
					],
					"set_fog":0,
					"use_global_fog":1,
					"rdp_settings":{
						"name":"",
						"g_zbuffer":1,
						"g_shade":1,
						"g_ambocclusion":0,
						"g_attroffset_z_enable":0,
						"g_attroffset_st_enable":0,
						"g_cull_front":0,
						"g_cull_back":1,
						"g_packed_normals":0,
						"g_lighttoalpha":0,
						"g_lighting_specular":0,
						"g_fresnel_color":0,
						"g_fresnel_alpha":0,
						"g_fog":1,
						"g_lighting":1,
						"g_tex_gen":0,
						"g_tex_gen_linear":0,
						"g_lod":0,
						"g_shade_smooth":1,
						"g_clipping":0,
						"g_mdsft_alpha_dither":2,
						"g_mdsft_rgb_dither":0,
						"g_mdsft_combkey":0,
						"g_mdsft_textconv":2,
						"g_mdsft_text_filt":2,
						"g_mdsft_textlut":0,
						"g_mdsft_textlod":0,
						"g_mdsft_textdetail":0,
						"g_mdsft_textpersp":1,
						"g_mdsft_cycletype":1,
						"g_mdsft_color_dither":1,
						"g_mdsft_pipeline":1,
						"g_mdsft_alpha_compare":0,
						"g_mdsft_zsrcsel":0,
						"clip_ratio":1,
						"set_rendermode":1,
						"rendermode_advanced_enabled":0,
						"rendermode_preset_cycle_1":8,
						"rendermode_preset_cycle_2":1,
						"aa_en":1,
						"z_cmp":1,
						"z_upd":1,
						"im_rd":1,
						"clr_on_cvg":0,
						"cvg_dst":0,
						"zmode":0,
						"cvg_x_alpha":0,
						"alpha_cvg_sel":1,
						"force_bl":0,
						"blend_p1":3,
						"blend_p2":0,
						"blend_a1":2,
						"blend_a2":0,
						"blend_m1":0,
						"blend_m2":1,
						"blend_b1":0,
						"blend_b2":1
					},
					"draw_layer":{
						"sm64":1,
						"oot":0,
						"name":""
					},
					"presetName":"Custom",
					"tex_scale":[
						1.0,
						1.0
					]
				},
				"ootMaterial":{},
				"objex_bonus":{},
				"is_f3d":1,
				"mat_ver":6,
				"f3d_update_flag":0
			},
			"name":"f3dlite_material.006",
			"pbrMetallicRoughness":{
				"baseColorFactor":[
					1,
					0.2829,
					0,
					1
				],
				"baseColorTexture":{
					"index":1
				},
				"metallicFactor":0,
				"roughnessFactor":0.5
			}
		},
		{
			"alphaMode":"BLEND",
			"extensions":{
				"FAST64_materials_n64":{
					"combiner":{
						"set":true,
						"cycles":[
							{
								"color":[
									"TEXEL0",
									"0",
									"SHADE",
									"0"
								],
								"alpha":[
									"0",
									"0",
									"0",
									"1"
								]
							},
							{
								"color":[
									"COMBINED",
									"0",
									"PRIMITIVE",
									"0"
								],
								"alpha":[
									"0",
									"0",
									"0",
									"COMBINED"
								]
							}
						]
					},
					"primitive":{
						"set":true,
						"color":[
							0.0018,
							0.0,
							0.4776,
							1.0
						],
						"minLoDRatio":0,
						"loDFraction":0
					},
					"fog":{
						"set":false,
						"color":[
							0.0,
							0.0,
							0.0,
							1.0
						],
						"range":[
							985,
							1000
						]
					},
					"blend":{
						"set":false,
						"color":[
							0.0,
							0.0,
							0.0,
							1.0
						]
					},
					"otherModes":{
						"alphaDither":"NOISE",
						"textureConvert":"FILT",
						"textureFilter":"BILERP",
						"perspectiveCorrection":"PERSP",
						"cycleType":"2CYCLE",
						"renderMode":{
							"presets":[
								"FOG_SHADE_A",
								"AA_ZB_OPA_SURF2"
							]
						}
					},
					"uvBasis":0,
					"textures":{
						"0":{
							"index":2
						}
					},
					"extensions":{
						"FAST64_materials_f3d":{
							"geometryMode":{
								"zBuffer":true,
								"shade":true,
								"cullBack":true,
								"fog":true,
								"lighting":true,
								"shadeSmooth":true
							},
							"clipRatio":1,
							"lights":{
								"set":false
							}
						}
					}
				}
			},
			"extras":{
				"rdp_settings":{},
				"combiner1":{},
				"UVanim":{
					"x":{},
					"y":{}
				},
				"tex0":{
					"tile_scroll":{}
				},
				"ootCollisionProperty":{},
				"f3d_mat":{
					"name":"",
					"combiner1":{
						"name":"",
						"A":1,
						"B":8,
						"C":4,
						"D":7,
						"A_alpha":7,
						"B_alpha":7,
						"C_alpha":7,
						"D_alpha":6
					},
					"combiner2":{
						"name":"",
						"A":0,
						"B":8,
						"C":3,
						"D":7,
						"A_alpha":7,
						"B_alpha":7,
						"C_alpha":7,
						"D_alpha":0
					},
					"tex0":{
						"tex_set":1,
						"name":"",
						"tex":{
							"name":"N64Outline.png",
							"type":"Image"
						},
						"menu":1,
						"S":{
							"mask":5,
							"shift":0,
							"low":0.0,
							"high":31.0
						},
						"T":{
							"mask":5,
							"shift":0,
							"low":0.0,
							"high":31.0
						},
						"tex_format":0
					},
					"tex1":{
						"tex_set":1,
						"name":"",
						"tex":{}
					},
					"set_prim":1,
					"set_lights":0,
					"set_env":0,
					"set_blend":0,
					"set_key":1,
					"set_k0_5":1,
					"set_combiner":1,
					"use_default_lighting":1,
					"blend_color":[
						0.0,
						0.0,
						0.0,
						1.0
					],
					"prim_color":[
						0.0017907494911924005,
						0.0,
						0.47756966948509216,
						1.0
					],
					"env_color":[
						0.0,
						0.0,
						0.0,
						1.0
					],
					"key_center":[
						0.5,
						0.5,
						0.5,
						1.0
					],
					"key_scale":[
						0.0,
						0.0,
						0.0
					],
					"key_width":[
						0.0,
						0.0,
						0.0
					],
					"k0":0.686274528503418,
					"k1":-0.16862745583057404,
					"k2":-0.3490196168422699,
					"k3":0.8705882430076599,
					"k4":0.4470588266849518,
					"k5":0.16470588743686676,
					"prim_lod_frac":0.0,
					"prim_lod_min":0.0,
					"default_light_color":[
						1.0,
						1.0,
						1.0,
						1.0
					],
					"ambient_light_color":[
						0.2140410989522934,
						0.2140410989522934,
						0.2140410989522934,
						1.0
					],
					"f3d_light1":null,
					"f3d_light2":null,
					"f3d_light3":null,
					"f3d_light4":null,
					"f3d_light5":null,
					"f3d_light6":null,
					"f3d_light7":null,
					"set_ao":0,
					"set_fresnel":0,
					"set_attroffs_st":0,
					"set_attroffs_z":0,
					"fog_color":[
						0.0,
						0.0,
						0.0,
						1.0
					],
					"fog_position":[
						985,
						1000
					],
					"set_fog":0,
					"use_global_fog":1,
					"rdp_settings":{
						"name":"",
						"g_zbuffer":1,
						"g_shade":1,
						"g_ambocclusion":0,
						"g_attroffset_z_enable":0,
						"g_attroffset_st_enable":0,
						"g_cull_front":0,
						"g_cull_back":1,
						"g_packed_normals":0,
						"g_lighttoalpha":0,
						"g_lighting_specular":0,
						"g_fresnel_color":0,
						"g_fresnel_alpha":0,
						"g_fog":1,
						"g_lighting":1,
						"g_tex_gen":0,
						"g_tex_gen_linear":0,
						"g_lod":0,
						"g_shade_smooth":1,
						"g_clipping":0,
						"g_mdsft_alpha_dither":2,
						"g_mdsft_rgb_dither":0,
						"g_mdsft_combkey":0,
						"g_mdsft_textconv":2,
						"g_mdsft_text_filt":2,
						"g_mdsft_textlut":0,
						"g_mdsft_textlod":0,
						"g_mdsft_textdetail":0,
						"g_mdsft_textpersp":1,
						"g_mdsft_cycletype":1,
						"g_mdsft_color_dither":1,
						"g_mdsft_pipeline":1,
						"g_mdsft_alpha_compare":0,
						"g_mdsft_zsrcsel":0,
						"clip_ratio":1,
						"set_rendermode":1,
						"rendermode_advanced_enabled":0,
						"rendermode_preset_cycle_1":8,
						"rendermode_preset_cycle_2":1,
						"aa_en":1,
						"z_cmp":1,
						"z_upd":1,
						"im_rd":1,
						"clr_on_cvg":0,
						"cvg_dst":0,
						"zmode":0,
						"cvg_x_alpha":0,
						"alpha_cvg_sel":1,
						"force_bl":0,
						"blend_p1":3,
						"blend_p2":0,
						"blend_a1":2,
						"blend_a2":0,
						"blend_m1":0,
						"blend_m2":1,
						"blend_b1":0,
						"blend_b2":1
					},
					"draw_layer":{
						"sm64":1,
						"oot":0,
						"name":""
					},
					"presetName":"Custom",
					"tex_scale":[
						1.0,
						1.0
					]
				},
				"ootMaterial":{},
				"objex_bonus":{},
				"is_f3d":1,
				"mat_ver":6,
				"f3d_update_flag":0
			},
			"name":"f3dlite_material.007",
			"pbrMetallicRoughness":{
				"baseColorFactor":[
					0.0018,
					0,
					0.4776,
					1
				],
				"baseColorTexture":{
					"index":2
				},
				"metallicFactor":0,
				"roughnessFactor":0.5
			}
		},
		{
			"alphaMode":"BLEND",
			"extensions":{
				"FAST64_materials_n64":{
					"combiner":{
						"set":true,
						"cycles":[
							{
								"color":[
									"TEXEL0",
									"0",
									"SHADE",
									"0"
								],
								"alpha":[
									"0",
									"0",
									"0",
									"1"
								]
							},
							{
								"color":[
									"COMBINED",
									"0",
									"PRIMITIVE",
									"0"
								],
								"alpha":[
									"0",
									"0",
									"0",
									"COMBINED"
								]
							}
						]
					},
					"primitive":{
						"set":true,
						"color":[
							0.3903,
							0.0,
							0.0004,
							1.0
						],
						"minLoDRatio":0,
						"loDFraction":0
					},
					"fog":{
						"set":false,
						"color":[
							0.0,
							0.0,
							0.0,
							1.0
						],
						"range":[
							985,
							1000
						]
					},
					"blend":{
						"set":false,
						"color":[
							0.0,
							0.0,
							0.0,
							1.0
						]
					},
					"otherModes":{
						"alphaDither":"NOISE",
						"textureConvert":"FILT",
						"textureFilter":"BILERP",
						"perspectiveCorrection":"PERSP",
						"cycleType":"2CYCLE",
						"renderMode":{
							"presets":[
								"FOG_SHADE_A",
								"AA_ZB_OPA_SURF2"
							]
						}
					},
					"uvBasis":0,
					"textures":{
						"0":{
							"index":3
						}
					},
					"extensions":{
						"FAST64_materials_f3d":{
							"geometryMode":{
								"zBuffer":true,
								"shade":true,
								"cullBack":true,
								"fog":true,
								"lighting":true,
								"shadeSmooth":true
							},
							"clipRatio":1,
							"lights":{
								"set":false
							}
						}
					}
				}
			},
			"extras":{
				"rdp_settings":{},
				"combiner1":{},
				"UVanim":{
					"x":{},
					"y":{}
				},
				"tex0":{
					"tile_scroll":{}
				},
				"ootCollisionProperty":{},
				"f3d_mat":{
					"name":"",
					"combiner1":{
						"name":"",
						"A":1,
						"B":8,
						"C":4,
						"D":7,
						"A_alpha":7,
						"B_alpha":7,
						"C_alpha":7,
						"D_alpha":6
					},
					"combiner2":{
						"name":"",
						"A":0,
						"B":8,
						"C":3,
						"D":7,
						"A_alpha":7,
						"B_alpha":7,
						"C_alpha":7,
						"D_alpha":0
					},
					"tex0":{
						"tex_set":1,
						"name":"",
						"tex":{
							"name":"N64Outline.png",
							"type":"Image"
						},
						"menu":1,
						"S":{
							"mask":5,
							"shift":0,
							"low":0.0,
							"high":31.0
						},
						"T":{
							"mask":5,
							"shift":0,
							"low":0.0,
							"high":31.0
						},
						"tex_format":0
					},
					"tex1":{
						"tex_set":1,
						"name":"",
						"tex":{}
					},
					"set_prim":1,
					"set_lights":0,
					"set_env":0,
					"set_blend":0,
					"set_key":1,
					"set_k0_5":1,
					"set_combiner":1,
					"use_default_lighting":1,
					"blend_color":[
						0.0,
						0.0,
						0.0,
						1.0
					],
					"prim_color":[
						0.39034539461135864,
						0.0,
						0.00042087488691322505,
						1.0
					],
					"env_color":[
						0.0,
						0.0,
						0.0,
						1.0
					],
					"key_center":[
						0.5,
						0.5,
						0.5,
						1.0
					],
					"key_scale":[
						0.0,
						0.0,
						0.0
					],
					"key_width":[
						0.0,
						0.0,
						0.0
					],
					"k0":0.686274528503418,
					"k1":-0.16862745583057404,
					"k2":-0.3490196168422699,
					"k3":0.8705882430076599,
					"k4":0.4470588266849518,
					"k5":0.16470588743686676,
					"prim_lod_frac":0.0,
					"prim_lod_min":0.0,
					"default_light_color":[
						1.0,
						1.0,
						1.0,
						1.0
					],
					"ambient_light_color":[
						0.2140410989522934,
						0.2140410989522934,
						0.2140410989522934,
						1.0
					],
					"f3d_light1":null,
					"f3d_light2":null,
					"f3d_light3":null,
					"f3d_light4":null,
					"f3d_light5":null,
					"f3d_light6":null,
					"f3d_light7":null,
					"set_ao":0,
					"set_fresnel":0,
					"set_attroffs_st":0,
					"set_attroffs_z":0,
					"fog_color":[
						0.0,
						0.0,
						0.0,
						1.0
					],
					"fog_position":[
						985,
						1000
					],
					"set_fog":0,
					"use_global_fog":1,
					"rdp_settings":{
						"name":"",
						"g_zbuffer":1,
						"g_shade":1,
						"g_ambocclusion":0,
						"g_attroffset_z_enable":0,
						"g_attroffset_st_enable":0,
						"g_cull_front":0,
						"g_cull_back":1,
						"g_packed_normals":0,
						"g_lighttoalpha":0,
						"g_lighting_specular":0,
						"g_fresnel_color":0,
						"g_fresnel_alpha":0,
						"g_fog":1,
						"g_lighting":1,
						"g_tex_gen":0,
						"g_tex_gen_linear":0,
						"g_lod":0,
						"g_shade_smooth":1,
						"g_clipping":0,
						"g_mdsft_alpha_dither":2,
						"g_mdsft_rgb_dither":0,
						"g_mdsft_combkey":0,
						"g_mdsft_textconv":2,
						"g_mdsft_text_filt":2,
						"g_mdsft_textlut":0,
						"g_mdsft_textlod":0,
						"g_mdsft_textdetail":0,
						"g_mdsft_textpersp":1,
						"g_mdsft_cycletype":1,
						"g_mdsft_color_dither":1,
						"g_mdsft_pipeline":1,
						"g_mdsft_alpha_compare":0,
						"g_mdsft_zsrcsel":0,
						"clip_ratio":1,
						"set_rendermode":1,
						"rendermode_advanced_enabled":0,
						"rendermode_preset_cycle_1":8,
						"rendermode_preset_cycle_2":1,
						"aa_en":1,
						"z_cmp":1,
						"z_upd":1,
						"im_rd":1,
						"clr_on_cvg":0,
						"cvg_dst":0,
						"zmode":0,
						"cvg_x_alpha":0,
						"alpha_cvg_sel":1,
						"force_bl":0,
						"blend_p1":3,
						"blend_p2":0,
						"blend_a1":2,
						"blend_a2":0,
						"blend_m1":0,
						"blend_m2":1,
						"blend_b1":0,
						"blend_b2":1
					},
					"draw_layer":{
						"sm64":1,
						"oot":0,
						"name":""
					},
					"presetName":"Custom",
					"tex_scale":[
						1.0,
						1.0
					]
				},
				"ootMaterial":{},
				"objex_bonus":{},
				"is_f3d":1,
				"mat_ver":6,
				"f3d_update_flag":0
			},
			"name":"f3dlite_material.008",
			"pbrMetallicRoughness":{
				"baseColorFactor":[
					0.3903,
					0,
					0.0004,
					1
				],
				"baseColorTexture":{
					"index":3
				},
				"metallicFactor":0,
				"roughnessFactor":0.5
			}
		}
	],
	"meshes":[
		{
			"name":"N square",
			"primitives":[
				{
					"attributes":{
						"POSITION":0,
						"NORMAL":1,
						"TEXCOORD_0":2,
						"COLOR_0":3,
						"COLOR_1":4
					},
					"indices":5,
					"material":0
				},
				{
					"attributes":{
						"POSITION":6,
						"NORMAL":7,
						"TEXCOORD_0":8,
						"COLOR_0":9,
						"COLOR_1":10
					},
					"indices":11,
					"material":1
				},
				{
					"attributes":{
						"POSITION":12,
						"NORMAL":13,
						"TEXCOORD_0":14,
						"COLOR_0":15,
						"COLOR_1":16
					},
					"indices":17,
					"material":2
				},
				{
					"attributes":{
						"POSITION":18,
						"NORMAL":19,
						"TEXCOORD_0":20,
						"COLOR_0":21,
						"COLOR_1":22
					},
					"indices":23,
					"material":3
				}
			]
		}
	],
	"textures":[
		{
			"name":"N64Outline",
			"sampler":0,
			"source":0
		},
		{
			"name":"N64Outline",
			"sampler":1,
			"source":0
		},
		{
			"name":"N64Outline",
			"sampler":2,
			"source":0
		},
		{
			"name":"N64Outline",
			"sampler":3,
			"source":0
		}
	],
	"images":[
		{
			"bufferView":6,
			"mimeType":"image/png",
			"name":"N64Outline"
		}
	],
	"accessors":[
		{
			"bufferView":0,
			"componentType":5126,
			"count":36,
			"max":[
				0.5524790287017822,
				0.5524799823760986,
				0.5500000715255737
			],
			"min":[
				-0.5524799823760986,
				-0.5524799823760986,
				-0.550000011920929
			],
			"type":"VEC3"
		},
		{
			"bufferView":1,
			"componentType":5126,
			"count":36,
			"type":"VEC3"
		},
		{
			"bufferView":2,
			"componentType":5126,
			"count":36,
			"type":"VEC2"
		},
		{
			"bufferView":3,
			"componentType":5123,
			"count":36,
			"normalized":true,
			"type":"VEC4"
		},
		{
			"bufferView":4,
			"componentType":5123,
			"count":36,
			"normalized":true,
			"type":"VEC4"
		},
		{
			"bufferView":5,
			"componentType":5123,
			"count":84,
			"type":"SCALAR"
		},
		{
			"bufferView":7,
			"componentType":5126,
			"count":32,
			"max":[
				0.5524790287017822,
				0.5524799823760986,
				0.5500000715255737
			],
			"min":[
				-0.5524799823760986,
				-0.5524799823760986,
				-0.550000011920929
			],
			"type":"VEC3"
		},
		{
			"bufferView":8,
			"componentType":5126,
			"count":32,
			"type":"VEC3"
		},
		{
			"bufferView":9,
			"componentType":5126,
			"count":32,
			"type":"VEC2"
		},
		{
			"bufferView":10,
			"componentType":5123,
			"count":32,
			"normalized":true,
			"type":"VEC4"
		},
		{
			"bufferView":11,
			"componentType":5123,
			"count":32,
			"normalized":true,
			"type":"VEC4"
		},
		{
			"bufferView":12,
			"componentType":5123,
			"count":48,
			"type":"SCALAR"
		},
		{
			"bufferView":13,
			"componentType":5126,
			"count":36,
			"max":[
				0.5524790287017822,
				0.5524799823760986,
				0.5500000715255737
			],
			"min":[
				-0.5524799823760986,
				-0.5524799823760986,
				-0.550000011920929
			],
			"type":"VEC3"
		},
		{
			"bufferView":14,
			"componentType":5126,
			"count":36,
			"type":"VEC3"
		},
		{
			"bufferView":15,
			"componentType":5126,
			"count":36,
			"type":"VEC2"
		},
		{
			"bufferView":16,
			"componentType":5123,
			"count":36,
			"normalized":true,
			"type":"VEC4"
		},
		{
			"bufferView":17,
			"componentType":5123,
			"count":36,
			"normalized":true,
			"type":"VEC4"
		},
		{
			"bufferView":18,
			"componentType":5123,
			"count":84,
			"type":"SCALAR"
		},
		{
			"bufferView":19,
			"componentType":5126,
			"count":32,
			"max":[
				0.5511149764060974,
				0.5511149764060974,
				0.5500000715255737
			],
			"min":[
				-0.5511149764060974,
				-0.5511150360107422,
				-0.550000011920929
			],
			"type":"VEC3"
		},
		{
			"bufferView":20,
			"componentType":5126,
			"count":32,
			"type":"VEC3"
		},
		{
			"bufferView":21,
			"componentType":5126,
			"count":32,
			"type":"VEC2"
		},
		{
			"bufferView":22,
			"componentType":5123,
			"count":32,
			"normalized":true,
			"type":"VEC4"
		},
		{
			"bufferView":23,
			"componentType":5123,
			"count":32,
			"normalized":true,
			"type":"VEC4"
		},
		{
			"bufferView":24,
			"componentType":5123,
			"count":48,
			"type":"SCALAR"
		}
	],
	"bufferViews":[
		{
			"buffer":0,
			"byteLength":432,
			"byteOffset":0,
			"target":34962
		},
		{
			"buffer":0,
			"byteLength":432,
			"byteOffset":432,
			"target":34962
		},
		{
			"buffer":0,
			"byteLength":288,
			"byteOffset":864,
			"target":34962
		},
		{
			"buffer":0,
			"byteLength":288,
			"byteOffset":1152,
			"target":34962
		},
		{
			"buffer":0,
			"byteLength":288,
			"byteOffset":1440,
			"target":34962
		},
		{
			"buffer":0,
			"byteLength":168,
			"byteOffset":1728,
			"target":34963
		},
		{
			"buffer":0,
			"byteLength":358,
			"byteOffset":1896
		},
		{
			"buffer":0,
			"byteLength":384,
			"byteOffset":2256,
			"target":34962
		},
		{
			"buffer":0,
			"byteLength":384,
			"byteOffset":2640,
			"target":34962
		},
		{
			"buffer":0,
			"byteLength":256,
			"byteOffset":3024,
			"target":34962
		},
		{
			"buffer":0,
			"byteLength":256,
			"byteOffset":3280,
			"target":34962
		},
		{
			"buffer":0,
			"byteLength":256,
			"byteOffset":3536,
			"target":34962
		},
		{
			"buffer":0,
			"byteLength":96,
			"byteOffset":3792,
			"target":34963
		},
		{
			"buffer":0,
			"byteLength":432,
			"byteOffset":3888,
			"target":34962
		},
		{
			"buffer":0,
			"byteLength":432,
			"byteOffset":4320,
			"target":34962
		},
		{
			"buffer":0,
			"byteLength":288,
			"byteOffset":4752,
			"target":34962
		},
		{
			"buffer":0,
			"byteLength":288,
			"byteOffset":5040,
			"target":34962
		},
		{
			"buffer":0,
			"byteLength":288,
			"byteOffset":5328,
			"target":34962
		},
		{
			"buffer":0,
			"byteLength":168,
			"byteOffset":5616,
			"target":34963
		},
		{
			"buffer":0,
			"byteLength":384,
			"byteOffset":5784,
			"target":34962
		},
		{
			"buffer":0,
			"byteLength":384,
			"byteOffset":6168,
			"target":34962
		},
		{
			"buffer":0,
			"byteLength":256,
			"byteOffset":6552,
			"target":34962
		},
		{
			"buffer":0,
			"byteLength":256,
			"byteOffset":6808,
			"target":34962
		},
		{
			"buffer":0,
			"byteLength":256,
			"byteOffset":7064,
			"target":34962
		},
		{
			"buffer":0,
			"byteLength":96,
			"byteOffset":7320,
			"target":34963
		}
	],
	"samplers":[
		{
			"extensions":{
				"FAST64_sampler_n64":{
					"set":true,
					"format":{
						"texture":"I",
						"size":4
					},
					"fields":[
						{
							"clamp":false,
							"mirror":false
						},
						{
							"clamp":false,
							"mirror":false
						}
					]
				}
			},
			"magFilter":9729,
			"minFilter":9987,
			"wrapS":10497,
			"wrapT":10497
		},
		{
			"extensions":{
				"FAST64_sampler_n64":{
					"set":true,
					"format":{
						"texture":"I",
						"size":4
					},
					"fields":[
						{
							"clamp":false,
							"mirror":false
						},
						{
							"clamp":false,
							"mirror":false
						}
					]
				}
			},
			"magFilter":9729,
			"minFilter":9987,
			"wrapS":10497,
			"wrapT":10497
		},
		{
			"extensions":{
				"FAST64_sampler_n64":{
					"set":true,
					"format":{
						"texture":"I",
						"size":4
					},
					"fields":[
						{
							"clamp":false,
							"mirror":false
						},
						{
							"clamp":false,
							"mirror":false
						}
					]
				}
			},
			"magFilter":9729,
			"minFilter":9987,
			"wrapS":10497,
			"wrapT":10497
		},
		{
			"extensions":{
				"FAST64_sampler_n64":{
					"set":true,
					"format":{
						"texture":"I",
						"size":4
					},
					"fields":[
						{
							"clamp":false,
							"mirror":false
						},
						{
							"clamp":false,
							"mirror":false
						}
					]
				}
			},
			"magFilter":9729,
			"minFilter":9987,
			"wrapS":10497,
			"wrapT":10497
		}
	],
	"buffers":[
		{
			"byteLength":7416,
			"uri":"data:application/octet-stream;base64,"
		}
	]
}
